:SAMPLES-PER-SECOND 30
:FULLY-SPECIFIED
:DEGREES
118
root  42.0692 34.3058 -56.6943 -178.325 70.9706 175.352
RightUpLeg  -26.0811 -42.8348 13.6223
RightLeg  23.4229 -25.9354 -8.9057
RightFoot  -7.36938 0.220483 4.14063
RightToes  6.86205 0.0131514 0.0657946
Spine  -1.35919 0.65756 -2.51291
Spine1  -2.78149 1.32471 -4.34833
HEad  -48.8082 -19.2788 3.52499
LeftShoulder1  -1.94126e-019 -3.10601e-018 -2.51263e-017
LeftArm  -13.9769 14.3597 -65.4362
LeftForeArm  32.7649 -25.9742 -4.29355
LeftHand  -0.431927 -0.120941 9.17733
RightShoulder  -4.96962e-017 0 -2.36833e-017
RightArm  -17.0869 -22.9509 80.5589
RightForeArm  55.7315 24.4186 2.42307
RightHand  -0.542669 1.30325 -9.54887
LeftUpLeg  -8.89158 1.90789 -1.04919
LeftLeg  19.3888 11.28 3.14577
LeftFoot  -2.2674 -0.00946373 -0.316688
LeftToes  -13.7406 1.87998e-006 4.79886e-008
119
root  42.8733 34.1199 -56.7242 -176.851 76.498 177.129
RightUpLeg  -22.5878 -39.4056 12.6657
RightLeg  22.1712 -22.5266 -7.28991
RightFoot  -8.53258 0.249798 4.03732
RightToes  2.56956 0.00584691 0.0244483
Spine  -1.62748 1.13004 -2.20682
Spine1  -3.30923 2.27913 -3.7644
HEad  -50.2669 -19.7669 2.23899
LeftShoulder1  -1.94126e-019 -3.10601e-018 -2.51263e-017
LeftArm  -16.9538 14.4649 -65.0091
LeftForeArm  31.9662 -30.0357 -4.95166
LeftHand  -0.517085 -0.644858 10.0645
RightShoulder  -4.96962e-017 0 -2.36833e-017
RightArm  -18.197 -21.8736 79.9164
RightForeArm  56.7734 18.3506 1.28308
RightHand  -0.467291 0.742003 -8.94918
LeftUpLeg  -9.05474 8.1347 0.119971
LeftLeg  23.9514 10.5031 3.84791
LeftFoot  -4.6061 -0.0369872 -0.758123
LeftToes  -15.5225 1.87998e-006 4.79886e-008
120
root  43.6614 34.0536 -56.6149 -168.394 81.8571 -173.968
RightUpLeg  -19.368 -37.9885 13.3935
RightLeg  19.6546 -19.3565 -5.41143
RightFoot  -8.81281 0.217819 3.49123
RightToes  3.15666 0.00702853 0.0300694
Spine  -1.77314 1.32695 -1.45526
Spine1  -3.594 2.71007 -2.3199
HEad  -52.3177 -20.6369 1.67585
LeftShoulder1  -1.94126e-019 -3.10601e-018 -2.51263e-017
LeftArm  -21.296 15.3462 -65.6829
LeftForeArm  30.6353 -32.5422 -5.47925
LeftHand  -0.522452 0.0607742 11.4499
RightShoulder  -4.96962e-017 0 -2.36833e-017
RightArm  -21.4834 -20.3744 78.2444
RightForeArm  60.5876 13.2873 1.31371
RightHand  -0.416946 -0.0212744 -9.05874
LeftUpLeg  -9.91967 14.731 2.59285
LeftLeg  30.1939 8.78725 4.35337
LeftFoot  -4.14268 -0.0263536 -0.567113
LeftToes  -24.8503 1.87998e-006 4.79886e-008
121
root  44.2624 34.0648 -56.5025 -142.303 87.0142 -148.092
RightUpLeg  -16.9695 -35.0239 13.5599
RightLeg  17.3271 -17.2642 -4.11401
RightFoot  -8.48595 0.171622 2.96304
RightToes  3.48432 0.00637376 0.0332117
Spine  -2.01028 1.25172 -1.08737
Spine1  -4.06444 2.57811 -1.61234
HEad  -54.9354 -22.4784 2.75524
LeftShoulder1  -1.94126e-019 -3.10601e-018 -2.51263e-017
LeftArm  -25.482 17.2058 -65.9706
LeftForeArm  28.2428 -34.4164 -6.0514
LeftHand  -0.51569 0.593333 12.5074
RightShoulder  -4.96962e-017 0 -2.36833e-017
RightArm  -26.3023 -19.0936 77.1446
RightForeArm  65.1981 10.755 1.53351
RightHand  -0.406145 -0.7485 -10.1308
LeftUpLeg  -12.6856 17.6973 3.58584
LeftLeg  38.2851 10.073 6.87467
LeftFoot  0.465856 -0.000374973 0.253844
LeftToes  -40.5139 1.87998e-006 4.79886e-008
122
root  44.807 34.0928 -56.4622 -21.227 86.3355 -26.9476
RightUpLeg  -14.3852 -31.3298 12.6219
RightLeg  15.4405 -15.4113 -3.1603
RightFoot  -8.07 0.132089 2.51021
RightToes  2.61934 0.00518584 0.0249244
Spine  -1.97723 0.927582 -0.985595
Spine1  -3.99972 1.93236 -1.38811
HEad  -57.9151 -23.9539 5.04275
LeftShoulder1  -1.94126e-019 -3.10601e-018 -2.51263e-017
LeftArm  -26.9463 19.516 -65.4665
LeftForeArm  23.6855 -35.2614 -6.53606
LeftHand  -0.476264 1.16569 13.0608
RightShoulder  -4.96962e-017 0 -2.36833e-017
RightArm  -28.2663 -17.8147 76.5217
RightForeArm  65.1011 10.4384 1.53821
RightHand  -0.348026 -1.71043 -10.8231
LeftUpLeg  -15.6648 19.123 3.48725
LeftLeg  46.6228 11.7607 10.7323
LeftFoot  6.42467 -0.102539 1.9884
LeftToes  -43.8373 1.87998e-006 4.79886e-008
123
root  45.3016 34.127 -56.4505 -5.60819 80.639 -11.0571
RightUpLeg  -11.8498 -28.1003 11.713
RightLeg  13.6117 -13.0795 -2.26397
RightFoot  -7.41557 0.0875646 1.97467
RightToes  1.60963 0.00347589 0.0152845
Spine  -1.76407 0.650852 -0.837378
Spine1  -3.57546 1.38415 -1.06864
HEad  -60.6292 -25.7928 7.27096
LeftShoulder1  -1.94126e-019 -3.10601e-018 -2.51263e-017
LeftArm  -25.6242 20.9952 -64.9694
LeftForeArm  20.3149 -34.3666 -6.49095
LeftHand  -0.349374 2.24598 12.715
RightShoulder  -4.96962e-017 0 -2.36833e-017
RightArm  -26.6746 -16.9461 75.7806
RightForeArm  60.5532 11.9713 1.47072
RightHand  -0.320404 -1.95304 -10.6191
LeftUpLeg  -18.334 19.6454 3.39304
LeftLeg  53.6074 13.1502 15.1221
LeftFoot  6.47677 -0.133192 2.51526
LeftToes  -23.8259 1.87998e-006 4.79886e-008
124
root  45.7532 34.1897 -56.4639 -1.41946 74.1404 -6.74773
RightUpLeg  -9.56194 -24.1889 10.8568
RightLeg  11.5662 -10.8378 -1.48772
RightFoot  -6.37378 0.0466285 1.44842
RightToes  0.919542 0.00125471 0.00871867
Spine  -1.4988 0.543515 -0.695291
Spine1  -3.03788 1.16752 -0.751945
HEad  -63.1528 -27.6717 9.16215
LeftShoulder1  -1.94126e-019 -3.10601e-018 -2.51263e-017
LeftArm  -22.8692 21.4816 -64.7988
LeftForeArm  20.1269 -31.0787 -5.66282
LeftHand  -0.381223 1.68096 11.8319
RightShoulder  -4.96962e-017 0 -2.36833e-017
RightArm  -23.1633 -16.0635 74.9513
RightForeArm  54.836 14.282 1.23799
RightHand  -0.332661 -1.48833 -9.76982
LeftUpLeg  -20.5007 19.3634 3.29371
LeftLeg  57.762 13.7588 18.1649
LeftFoot  4.01129 -0.0588708 1.84256
LeftToes  -18.6535 1.87998e-006 4.79886e-008
125
root  46.2182 34.2769 -56.5403 1.13724 66.8498 -4.24686
RightUpLeg  -7.89612 -19.5116 9.7476
RightLeg  10.0921 -8.41977 -0.939533
RightFoot  -5.21909 0.0175049 0.982576
RightToes  -0.314807 -0.0014669 -0.00297651
Spine  -1.31382 0.656579 -0.669609
Spine1  -2.6667 1.3815 -0.67685
HEad  -64.7611 -29.6189 10.4467
LeftShoulder1  -1.94126e-019 -3.10601e-018 -2.51263e-017
LeftArm  -18.8961 21.768 -64.882
LeftForeArm  22.8814 -27.0814 -4.70943
LeftHand  -0.381084 1.07467 10.2192
RightShoulder  -4.96962e-017 0 -2.36833e-017
RightArm  -19.7665 -15.4662 74.2012
RightForeArm  51.2646 17.673 1.41231
RightHand  -0.347755 -1.1236 -9.38563
LeftUpLeg  -21.9832 18.4874 3.16045
LeftLeg  58.5058 13.6283 18.4742
LeftFoot  2.28423 -0.0192704 1.12818
LeftToes  -14.7217 1.87998e-006 4.79886e-008
126
root  46.6346 34.342 -56.6478 2.53669 59.509 -3.25235
RightUpLeg  -7.19311 -14.7619 8.93042
RightLeg  9.33065 -6.04442 -0.594571
RightFoot  -4.19938 0.00188975 0.638465
RightToes  -1.77557 -0.00467796 -0.0167292
Spine  -1.25569 0.692699 -0.553312
Spine1  -2.55056 1.45607 -0.434834
HEad  -65.3924 -31.1366 10.7487
LeftShoulder1  -1.94126e-019 -3.10601e-018 -2.51263e-017
LeftArm  -16.1229 22.5435 -65.7885
LeftForeArm  28.1795 -23.5846 -4.05051
LeftHand  -0.420561 -0.21146 8.8006
RightShoulder  -4.96962e-017 0 -2.36833e-017
RightArm  -17.1999 -14.8299 73.4292
RightForeArm  50.5568 20.9551 1.97253
RightHand  -0.36197 -1.19758 -9.93911
LeftUpLeg  -23.1419 16.1467 3.39846
LeftLeg  56.523 13.6384 17.2709
LeftFoot  2.06807 -0.0150863 0.997423
LeftToes  -14.8713 1.87998e-006 4.79886e-008
127
root  47.0472 34.3797 -56.7829 3.57731 51.9311 -2.76071
RightUpLeg  -7.20841 -10.0282 8.16935
RightLeg  9.32389 -3.62339 -0.356177
RightFoot  -3.48252 -0.00532056 0.400035
RightToes  -3.47257 -0.00963129 -0.0325754
Spine  -1.20134 0.787949 -0.45708
Spine1  -2.43979 1.64884 -0.234928
HEad  -66.0623 -32.3561 10.9335
LeftShoulder1  -1.94126e-019 -3.10601e-018 -2.51263e-017
LeftArm  -14.2044 23.5498 -67.2269
LeftForeArm  31.9861 -21.0976 -3.67956
LeftHand  -0.447151 -0.876391 8.41437
RightShoulder  -4.96962e-017 0 -2.36833e-017
RightArm  -15.2017 -13.9733 72.8457
RightForeArm  50.2978 23.4458 2.46615
RightHand  -0.36818 -1.34091 -10.4545
LeftUpLeg  -23.503 12.9814 4.18783
LeftLeg  52.035 13.7425 14.947
LeftFoot  2.68475 -0.0232576 1.15407
LeftToes  -18.0899 1.87998e-006 4.79886e-008
128
root  47.4718 34.3937 -56.9404 4.35766 44.176 -2.64778
RightUpLeg  -7.76313 -4.18865 7.38264
RightLeg  9.97217 -1.7522 -0.191942
RightFoot  -2.81256 -0.00768491 0.254198
RightToes  -6.37986 -0.0192003 -0.0593585
Spine  -1.14836 0.883165 -0.352888
Spine1  -2.33285 1.84499 -0.0243001
HEad  -67.209 -33.0657 11.4044
LeftShoulder1  -1.94126e-019 -3.10601e-018 -2.51263e-017
LeftArm  -13.9068 24.6401 -69.1617
LeftForeArm  32.4914 -19.19 -3.39256
LeftHand  -0.474924 -0.961662 8.81673
RightShoulder  -4.96962e-017 0 -2.36833e-017
RightArm  -13.9851 -12.7372 72.542
RightForeArm  49.8079 24.5822 2.71284
RightHand  -0.359528 -1.43664 -10.4419
LeftUpLeg  -22.9022 8.83599 5.65085
LeftLeg  45.2733 13.3262 11.5547
LeftFoot  3.5473 -0.0348961 1.28846
LeftToes  -21.9132 1.87998e-006 4.79886e-008
129
root  47.941 34.3808 -57.1297 5.38352 36.3459 -2.58703
RightUpLeg  -9.18311 1.16032 6.40802
RightLeg  11.3415 0.520437 0.0708
RightFoot  -2.56462 -0.00945557 0.132464
RightToes  -9.30894 -0.0302024 -0.0858164
Spine  -1.2199 0.916125 -0.257147
Spine1  -2.47391 1.91683 0.170476
HEad  -67.9945 -32.9074 11.522
LeftShoulder1  -1.94126e-019 -3.10601e-018 -2.51263e-017
LeftArm  -15.1646 25.7358 -71.4495
LeftForeArm  32.2175 -17.3623 -3.0807
LeftHand  -0.501037 -0.755065 9.58971
RightShoulder  -4.96962e-017 0 -2.36833e-017
RightArm  -13.1702 -11.4195 72.3588
RightForeArm  49.5201 24.8034 2.77065
RightHand  -0.347746 -1.41803 -10.0484
LeftUpLeg  -21.5912 3.08565 7.52704
LeftLeg  36.6821 11.0607 7.09615
LeftFoot  2.46478 -0.0123865 0.737336
LeftToes  -24.4811 1.87998e-006 4.79886e-008
130
root  48.473 34.3509 -57.3459 6.61142 29.1199 -2.38334
RightUpLeg  -11.2514 5.45433 4.97629
RightLeg  13.2607 3.32188 0.560758
RightFoot  -2.45361 -0.0115685 -0.00206716
RightToes  -13.1242 -0.0465342 -0.119374
Spine  -1.38049 0.808641 -0.219283
Spine1  -2.79186 1.70258 0.256154
HEad  -68.232 -32.3376 11.5074
LeftShoulder1  -1.94126e-019 -3.10601e-018 -2.51263e-017
LeftArm  -16.5745 26.3393 -73.7366
LeftForeArm  32.094 -15.6379 -2.76994
LeftHand  -0.486543 -0.191676 10.2059
RightShoulder  -4.96962e-017 0 -2.36833e-017
RightArm  -13.3248 -10.3351 72.3025
RightForeArm  49.9712 24.4035 2.67355
RightHand  -0.350063 -1.4519 -10.1999
LeftUpLeg  -20.393 -7.39244 9.82046
LeftLeg  28.2256 8.4759 3.8464
LeftFoot  0.300597 -0.000124207 0.208986
LeftToes  -23.294 1.87998e-006 4.79886e-008
131
root  49.0793 34.2943 -57.5839 7.68621 22.743 -2.0322
RightUpLeg  -13.8027 8.66127 3.13397
RightLeg  16.0331 6.29328 1.37516
RightFoot  -2.69388 -0.0163124 -0.176237
RightToes  -17.7895 -0.0694819 -0.158816
Spine  -1.51774 0.57232 -0.268783
Spine1  -3.0664 1.22783 0.166547
HEad  -67.9662 -31.3312 11.387
LeftShoulder1  -1.94126e-019 -3.10601e-018 -2.51263e-017
LeftArm  -17.3286 26.2782 -75.7228
LeftForeArm  32.5086 -14.779 -2.61736
LeftHand  -0.495202 -0.66772 9.60878
RightShoulder  -4.96962e-017 0 -2.36833e-017
RightArm  -14.7208 -9.7916 72.2936
RightForeArm  50.7971 23.7063 2.50181
RightHand  -0.367407 -1.45955 -10.7343
LeftUpLeg  -20.4158 -21.5256 12.5532
LeftLeg  22.3304 7.33756 2.46477
LeftFoot  0.115225 -1.26e-005 0.174322
LeftToes  -27.928 1.87998e-006 4.79886e-008
